<svg width="141" height="141" viewBox="0 0 141 141" fill="none" xmlns="http://www.w3.org/2000/svg">
<g clip-path="url(#clip0)">
<path d="M94.289 74.7277C87.9443 64.8298 77.1384 58.9196 65.3827 58.9196C53.6269 58.9196 42.8211 64.8298 36.4774 74.7277L21.1889 98.578C18.6523 102.535 17.4819 107.107 17.8036 111.796C18.1252 116.486 19.9099 120.853 22.9639 124.429C26.0201 128.002 30.0584 130.444 34.6422 131.492C39.2259 132.539 43.9248 132.092 48.2299 130.2L48.5182 130.072C59.351 125.405 71.7296 125.448 82.5343 130.2C85.3216 131.425 88.2745 132.044 91.2543 132.044C92.8744 132.044 94.5042 131.86 96.1189 131.493C100.703 130.446 104.741 128.004 107.798 124.43C110.853 120.858 112.639 116.489 112.962 111.798C113.285 107.107 112.114 102.536 109.577 98.5769L94.289 74.7277Z" fill="#E9E7E7"/>
<path d="M25.3069 74.6965C29.8551 72.9495 33.3104 69.2844 35.0359 64.3758C36.6786 59.7049 36.5441 54.4316 34.6562 49.5262C32.7672 44.624 29.3313 40.6223 24.9809 38.2567C20.4112 35.7728 15.3907 35.3683 10.85 37.1186C1.71475 40.6309 -2.47743 51.9197 1.50605 62.2888C4.6881 70.542 12.1097 75.7518 19.613 75.7518C21.5289 75.7518 23.4502 75.4118 25.3069 74.6965Z" fill="#E9E7E7"/>
<path d="M54.9716 56.0108C66.3917 56.0108 75.6829 45.4255 75.6829 32.4143C75.6829 19.4 66.3917 8.8125 54.9716 8.8125C43.5526 8.8125 34.2625 19.4 34.2625 32.4143C34.2625 45.4255 43.5526 56.0108 54.9716 56.0108Z" fill="#E9E7E7"/>
<path d="M90.7401 61.808H90.7412C92.4979 62.391 94.2901 62.6697 96.0747 62.6697C104.403 62.6697 112.52 56.6078 115.617 47.2919C117.4 41.9293 117.283 36.2591 115.286 31.3268C113.197 26.1632 109.326 22.4153 104.384 20.7726C99.4407 19.13 94.0954 19.8152 89.3309 22.7004C84.7794 25.4564 81.2919 29.9283 79.5104 35.2909C75.7507 46.6034 80.7884 58.499 90.7401 61.808Z" fill="#E9E7E7"/>
<path d="M134.356 59.0541L134.353 59.0509C126.477 53.2332 114.699 55.7548 108.095 64.6749C101.498 73.5992 102.529 85.597 110.393 91.4189C113.261 93.5435 116.649 94.559 120.118 94.559C126.162 94.559 132.451 91.4738 136.655 85.8003C143.251 76.876 142.221 64.8782 134.356 59.0541Z" fill="#E9E7E7"/>
</g>
<defs>
<clipPath id="clip0">
<rect width="141" height="141" fill="white"/>
</clipPath>
</defs>
</svg>
